<?xml version="1.0" encoding="utf-8"?>
<!-- Generator: Adobe Illustrator 23.0.0, SVG Export Plug-In . SVG Version: 6.00 Build 0)  -->
<svg version="1.1" id="Layer_1" xmlns="http://www.w3.org/2000/svg" x="0px" y="0px"
	 viewBox="0 0 256 256" style="enable-background:new 0 0 256 256;" xml:space="preserve">
<style type="text/css">
	.st0{fill:#FFFFFF;}
</style>
<polygon class="st0" points="100,125.5 112,125.5 112,125.5 106,108.5 "/>
<path class="st0" d="M128,36C70.6,36,24,72.7,24,118c0,29.3,19.5,55,48.7,69.5c-1.6,5.5-10.2,35.3-10.6,37.7c0,0-0.2,1.8,0.9,2.4
	s2.5,0.2,2.5,0.2c3.3-0.5,37.9-24.8,43.9-29c6,0.8,12.2,1.3,18.5,1.3c57.4,0,104-36.7,104-82C232,72.7,185.4,36,128,36z M76.5,140.9
	c0,3.2-2.7,5.7-6,5.7s-6-2.6-6-5.7v-35.6h-9.4c-3.2,0-5.9-2.6-5.9-5.9s2.6-5.9,5.9-5.9h30.7c3.2,0,5.9,2.6,5.9,5.9s-2.6,5.9-5.9,5.9
	h-9.4V140.9z M126.9,145.7c-1.2,0.5-2.5,0.8-3.8,0.8c-2.5,0-4.4-1-5-2.7l-3-7.8l-18.3,0l-3,7.8c-0.6,1.6-2.5,2.6-5,2.6
	c-1.3,0-2.6-0.3-3.8-0.8c-1.7-0.8-3.2-2.9-1.4-8.5L98,99.4c1-2.9,4.1-5.8,8-5.9c3.9,0.1,7,3,8,5.9l14.3,37.8
	C130.2,142.9,128.6,145,126.9,145.7z M157.3,145.8H138c-3.2,0-5.8-2.5-5.8-5.5V99.5c0-3.3,2.7-6,6.1-6s6.1,2.7,6.1,6v35.3h12.8
	c3.2,0,5.8,2.5,5.8,5.5S160.4,145.8,157.3,145.8z M204.2,141.2c-0.2,1.6-1,3-2.3,4c-1,0.8-2.3,1.2-3.6,1.2c-1.9,0-3.6-0.9-4.8-2.4
	l-14.1-18.6l-2.1,2.1v13.1c0,3.3-2.7,6-6,6c-3.3,0-6-2.7-6-6v-41c0-3.3,2.7-6,6-6c3.3,0,6,2.7,6,6v12.9l16.7-16.7
	c0.9-0.9,2-1.3,3.3-1.3c1.5,0,3,0.6,4.1,1.8c1.1,1,1.7,2.4,1.8,3.8c0.1,1.4-0.4,2.7-1.3,3.7l-13.7,13.7l14.8,19.6
	C204,138.1,204.4,139.6,204.2,141.2z"/>
</svg>
